- 
http://www.Speed.Cd      fast  and The Hottest Private Tracker on the net

   signup is open now

Please Seed back to make the speed Faster!!!

------------------nfo--------------------------
-[img]http://img94.imageshack.us/img94/9899/twlight.jpg[/img]
[code]
IMDb::http://www.imdb.com/title/tt1324999/

Plot:The Quileute and the Volturi close in on expecting parents Edward and Bella, whose unborn child poses different threats to the wolf pack and vampire coven.


Source:
720 TS THNXS FYA !

Notes:
Source was very good thnxs guyz!!!! added brightnes and sharpness to video so enjoy :P 
take it or leave it :)
enocded by LoGiCuRL

Format                                   : AVI
Format/Info                              : Audio Video Interleave
File size                                : 1.51 GiB
Duration                                 : 1h 46mn
Overall bit rate                         : 2 019 Kbps

Video
ID                                       : 0
Format                                   : MPEG-4 Visual
Format profile                           : Advanced Simple@L5
Format settings, BVOP                    : 2
Format settings, QPel                    : No
Format settings, GMC                     : No warppoints
Format settings, Matrix                  : Default (H.263)
Codec ID                                 : XVID
Codec ID/Hint                            : XviD
Duration                                 : 1h 46mn
Bit rate                                 : 1 750 Kbps
Width                                    : 1 280 pixels
Height                                   : 544 pixels
Display aspect ratio                     : 2.35:1
Frame rate                               : 25.000 fps
Color space                              : YUV
Chroma subsampling                       : 4:2:0
Bit depth                                : 8 bits
Scan type                                : Progressive
Compression mode                         : Lossy
Bits/(Pixel*Frame)                       : 0.101
Stream size                              : 1.31 GiB (87%)
Writing library                          : XviD 63

Audio
ID                                       : 1
Format                                   : MPEG Audio
Format version                           : Version 1
Format profile                           : Layer 3
Codec ID                                 : 55
Codec ID/Hint                            : MP3
Duration                                 : 1h 46mn
Bit rate mode                            : Constant
Bit rate                                 : 256 Kbps
Channel(s)                               : 2 channels
Sampling rate                            : 48.0 KHz
Compression mode                         : Lossy
Stream size                              : 196 MiB (13%)
Alignment                                : Split accross interleaves
Interleave, duration                     : 24 ms (0.60 video frame)
Writing library                          : LAME
[/code]
Screens:
[img]http://img339.imageshack.us/img339/135/vlcsnap2011112721h11m14.png[/img]
[img]http://img528.imageshack.us/img528/3078/vlcsnap2011112721h11m26.png[/img]
[img]http://img267.imageshack.us/img267/8069/vlcsnap2011112721h11m31.png[/img]
[img]http://img193.imageshack.us/img193/7181/vlcsnap2011112721h11m37.png[/img]
[img]http://img208.imageshack.us/img208/3869/vlcsnap2011112721h11m45.png[/img]
[img]http://img546.imageshack.us/img546/7379/vlcsnap2011112721h12m00.png[/img]
[img]http://img64.imageshack.us/img64/4514/vlcsnap2011112721h12m07.png[/img]